<?xml version="1.0" encoding="UTF-8"?>
<svg width="100px" height="88px" viewBox="0 0 100 88" version="1.1" xmlns="http://www.w3.org/2000/svg" xmlns:xlink="http://www.w3.org/1999/xlink">
    <!-- Generator: Sketch 41.2 (35397) - http://www.bohemiancoding.com/sketch -->
    <title>agreement</title>
    <desc>Created with Sketch.</desc>
    <defs></defs>
    <g id="Page-1" stroke="none" stroke-width="1" fill="none" fill-rule="evenodd">
        <g id="Group-13" transform="translate(-61.000000, -4.000000)" fill="#00BAFF">
            <g id="agreement" transform="translate(61.000000, 3.000000)">
                <g id="Capa_1" transform="translate(0.000000, 1.000000)">
                    <path d="M77.5819672,16.0635246 C79.6106557,16.0635246 81.5983607,15.5307377 83.3401639,14.4856557 L99.8770492,4.71106557 L99.8770492,0.141393443 L81.2704918,10.9815574 C79.8565574,11.8012295 78.2581967,12.2315574 76.6393443,12.2110656 L52.0081967,11.9241803 C50.7786885,11.4733607 49.795082,11.1864754 49.4262295,11.0430328 C41.7213115,9.32172131 35.6967213,9.99795082 31.5983607,11.1045082 C28.5245902,11.9241803 25.2459016,11.6168033 22.3360656,10.2848361 L0,0.0389344262 L0,40.9815574 L2.31557377,42.2520492 C5.73770492,44.1168033 8.46311475,47.0061475 10.1639344,50.5102459 L8.85245902,51.5758197 C5.32786885,54.1372951 4.56967213,59.0963115 6.8852459,62.6004098 C8.17622951,64.3012295 10,65.3872951 12.0901639,65.7561475 C12.3360656,65.7766393 12.704918,65.7971311 12.9713115,65.7971311 C13.7295082,65.8381148 14.4672131,65.7561475 15.102459,65.6536885 C15.1434426,67.4159836 15.5532787,68.932377 16.5983607,70.3668033 C17.9918033,72.3135246 20.204918,73.1946721 22.5819672,73.317623 C23.1967213,73.3586066 23.8319672,73.3790984 24.3237705,73.420082 C24.0983607,75.2848361 24.6311475,77.1905738 25.7991803,78.7479508 C27.0901639,80.4487705 28.9139344,81.5348361 31.0040984,81.9036885 C31.25,81.9241803 31.6188525,81.9446721 31.8852459,81.9446721 C33.75,82.0471311 35.5327869,81.5143443 36.9672131,80.4692623 L37.7459016,79.875 C37.9303279,81.0020492 38.2581967,82.0266393 38.954918,82.9487705 C40,84.3831967 41.5778689,85.3463115 43.442623,85.6946721 C43.6885246,85.7151639 43.9344262,85.7151639 44.2008197,85.7356557 C45.6967213,85.817623 47.2131148,85.3872951 48.5245902,84.4651639 L48.647541,84.4651639 L49.5696721,85.7561475 C51.1885246,88.0922131 54.5491803,88.6454918 56.8852459,87.0266393 C58.8319672,85.6331967 59.6106557,82.9077869 58.7295082,80.7356557 L58.8934426,80.9815574 C60.4303279,83.2561475 63.3401639,84.2397541 65.8811475,83.1946721 C68.6885246,82.0471311 69.8155738,79.0143443 69.0778689,76.4118852 C70.9631148,78.522541 74.2008197,78.932377 76.5368852,77.3135246 L76.6598361,77.1905738 C78.9959016,75.5717213 79.6721311,72.477459 78.4221311,70.0184426 C80.4508197,71.8831967 83.6885246,72.170082 86.0245902,70.5512295 C88.75,68.5635246 89.4672131,64.7315574 87.4795082,61.9856557 L84.5696721,57.8258197 L90.9016393,50.4487705 C92.5614754,48.5020492 94.5491803,46.8627049 96.7622951,45.5717213 L99.8770492,43.7684426 L99.8770492,38.8913934 L95.5737705,41.329918 C93.1147541,42.7233607 90.9016393,44.5266393 89.057377,46.6782787 L82.2540984,54.567623 C80.2254098,52.7028689 76.9877049,52.4159836 74.6516393,54.0348361 C71.9262295,56.022541 71.2090164,59.8545082 73.1967213,62.6004098 L73.2991803,62.8668033 L73.1762295,62.8668033 C71.25,61.5143443 68.6270492,61.3709016 66.557377,62.7643443 L66.4344262,62.8872951 C64.6106557,64.1577869 63.75,66.3709016 64.1393443,68.522541 L63.4836066,68.9938525 C61.6598361,68.0307377 59.4057377,68.0307377 57.5819672,69.3012295 C55.9016393,70.4692623 55.0409836,72.5389344 55.1844262,74.4241803 L53.3811475,75.5717213 C52.0286885,75.2438525 50.5122951,75.5512295 49.3442623,76.3504098 C47.9098361,77.3954918 47.0696721,79.1168033 47.1106557,80.7356557 L46.2090164,81.3094262 C45.6762295,81.7807377 44.795082,81.9856557 44.057377,81.8217213 C43.3196721,81.6577869 42.5819672,81.2479508 42.1106557,80.5922131 C41.6393443,80.0594262 41.4344262,79.1782787 41.5983607,78.4405738 C41.7622951,77.7028689 42.1721311,76.9651639 42.8278689,76.4938525 L52.602459,69.1372951 C53.1147541,68.7889344 53.4016393,68.2971311 53.4221311,67.682377 C53.4836066,66.5553279 52.5204918,65.5922131 51.4139344,65.5922131 C50.9836066,65.5922131 50.6352459,65.6946721 50.2663934,65.8995902 L34.6516393,77.2110656 C33.75,77.7848361 32.7254098,78.1127049 31.6188525,77.9282787 C30.5122951,77.7438525 29.5286885,77.1905738 28.954918,76.2889344 C27.6639344,74.5881148 28.0532787,71.9856557 29.8770492,70.7151639 L48.4836066,57.4364754 C48.8934426,57.067623 49.1803279,56.5553279 49.1803279,55.8790984 C49.2008197,54.8135246 48.3196721,53.9118852 47.2540984,53.8709016 C46.6393443,53.8504098 46.147541,54.0758197 45.7377049,54.5471311 L27.5204918,67.7233607 C27.0081967,67.9487705 26.7418033,68.317623 26.352459,68.6659836 C24.1598361,70.0594262 20.9221311,69.7520492 19.7540984,68.1946721 C18.5860656,66.5143443 18.8319672,64.2602459 20.2868852,62.8463115 L22.1106557,61.5758197 L42.3565574,47.7643443 C42.8688525,47.4159836 43.1557377,46.9241803 43.1762295,46.3094262 C43.2172131,45.6331967 42.8893443,44.9979508 42.3360656,44.6086066 C41.6188525,44.0963115 40.9016393,44.0758197 40.1434426,44.5266393 L18.4631148,59.2602459 C18.3196721,59.5061475 18.0737705,59.6086066 17.9303279,59.7315574 L15.8401639,61.2479508 C14.1393443,62.5389344 11.5368852,62.1495902 10.2663934,60.3258197 C8.97540984,58.625 9.3647541,56.022541 11.1885246,54.7520492 L52.0696721,24.6495902 C55.3483607,26.5758197 57.7663934,30.4487705 57.7663934,30.4487705 C61.7827869,43.0307377 66.7827869,43.1331967 69.8155738,41.6168033 C71.3934426,40.8381148 72.1106557,38.9733607 71.557377,37.2930328 C69.9590164,32.4364754 69.0368852,23.0307377 69.0368852,23.0307377 C67.9098361,20.5922131 64.3032787,18.0307377 60.2868852,15.9405738 L73.4221311,16.1454918 L77.5819672,16.0635246 Z" id="Shape"></path>
                </g>
            </g>
        </g>
    </g>
</svg>