<?xml version="1.0" encoding="UTF-8"?>
<svg width="90px" height="90px" viewBox="0 0 90 90" version="1.1" xmlns="http://www.w3.org/2000/svg" xmlns:xlink="http://www.w3.org/1999/xlink">
    <!-- Generator: Sketch 41.2 (35397) - http://www.bohemiancoding.com/sketch -->
    <title>clock</title>
    <desc>Created with Sketch.</desc>
    <defs></defs>
    <g id="Page-1" stroke="none" stroke-width="1" fill="none" fill-rule="evenodd">
        <g id="Group-13" transform="translate(-384.000000, 0.000000)" fill="#00BAFF">
            <g id="Group-12" transform="translate(309.000000, 0.000000)">
                <g id="clock" transform="translate(75.000000, 0.000000)">
                    <g id="Capa_1">
                        <g id="Group">
                            <path d="M45,0 C20.187,0 0,20.187 0,45 C0,69.813 20.187,90 45,90 C69.813,90 90,69.813 90,45 C90,20.187 69.813,0 45,0 Z M45,87 C21.8415,87 3,68.1585 3,45 C3,21.8415 21.8415,3 45,3 C68.1585,3 87,21.8415 87,45 C87,68.1585 68.1585,87 45,87 Z" id="Shape"></path>
                            <path d="M46.5,39.0315 L46.5,23.8185 C46.5,22.989 45.828,22.3185 45,22.3185 C44.172,22.3185 43.5,22.989 43.5,23.8185 L43.5,39.0315 C41.4015,39.5775 39.759,41.22 39.213,43.3185 L28.5,43.3185 C27.672,43.3185 27,43.989 27,44.8185 C27,45.648 27.672,46.3185 28.5,46.3185 L39.213,46.3185 C39.8835,48.8985 42.213,50.8185 45,50.8185 C48.309,50.8185 51,48.1275 51,44.8185 C51,42.03 49.08,39.702 46.5,39.0315 Z M45,47.8185 C43.3455,47.8185 42,46.473 42,44.8185 C42,43.164 43.3455,41.8185 45,41.8185 C46.6545,41.8185 48,43.164 48,44.8185 C48,46.473 46.6545,47.8185 45,47.8185 Z" id="Shape"></path>
                            <path d="M45,14.8185 C45.828,14.8185 46.5,14.148 46.5,13.3185 L46.5,11.8185 C46.5,10.989 45.828,10.3185 45,10.3185 C44.172,10.3185 43.5,10.989 43.5,11.8185 L43.5,13.3185 C43.5,14.148 44.172,14.8185 45,14.8185 Z" id="Shape"></path>
                            <path d="M45,74.8185 C44.172,74.8185 43.5,75.489 43.5,76.3185 L43.5,77.8185 C43.5,78.648 44.172,79.3185 45,79.3185 C45.828,79.3185 46.5,78.648 46.5,77.8185 L46.5,76.3185 C46.5,75.489 45.828,74.8185 45,74.8185 Z" id="Shape"></path>
                            <path d="M78,43.3185 L76.5,43.3185 C75.672,43.3185 75,43.989 75,44.8185 C75,45.648 75.672,46.3185 76.5,46.3185 L78,46.3185 C78.828,46.3185 79.5,45.648 79.5,44.8185 C79.5,43.989 78.828,43.3185 78,43.3185 Z" id="Shape"></path>
                            <path d="M13.5,43.3185 L12,43.3185 C11.172,43.3185 10.5,43.989 10.5,44.8185 C10.5,45.648 11.172,46.3185 12,46.3185 L13.5,46.3185 C14.328,46.3185 15,45.648 15,44.8185 C15,43.989 14.328,43.3185 13.5,43.3185 Z" id="Shape"></path>
                            <path d="M67.2735,20.4225 L66.213,21.483 C65.6265,22.0695 65.6265,23.0175 66.213,23.604 C66.5055,23.8965 66.8895,24.0435 67.2735,24.0435 C67.6575,24.0435 68.0415,23.8965 68.334,23.604 L69.3945,22.5435 C69.981,21.957 69.981,21.009 69.3945,20.4225 C68.808,19.836 67.86,19.8375 67.2735,20.4225 Z" id="Shape"></path>
                            <path d="M21.666,66.0315 L20.6055,67.092 C20.019,67.6785 20.019,68.6265 20.6055,69.213 C20.898,69.5055 21.282,69.6525 21.666,69.6525 C22.05,69.6525 22.434,69.5055 22.7265,69.213 L23.787,68.1525 C24.3735,67.566 24.3735,66.618 23.787,66.0315 C23.2005,65.445 22.251,65.4465 21.666,66.0315 Z" id="Shape"></path>
                            <path d="M68.334,66.0315 C67.7475,65.445 66.7995,65.445 66.213,66.0315 C65.6265,66.618 65.6265,67.566 66.213,68.1525 L67.2735,69.213 C67.566,69.5055 67.95,69.6525 68.334,69.6525 C68.718,69.6525 69.102,69.5055 69.3945,69.213 C69.981,68.6265 69.981,67.6785 69.3945,67.092 L68.334,66.0315 Z" id="Shape"></path>
                            <path d="M22.7265,20.4225 C22.14,19.836 21.192,19.836 20.6055,20.4225 C20.019,21.009 20.019,21.957 20.6055,22.5435 L21.666,23.604 C21.9585,23.8965 22.3425,24.0435 22.7265,24.0435 C23.1105,24.0435 23.4945,23.8965 23.787,23.604 C24.3735,23.0175 24.3735,22.0695 23.787,21.483 L22.7265,20.4225 Z" id="Shape"></path>
                        </g>
                    </g>
                </g>
            </g>
        </g>
    </g>
</svg>