<?xml version="1.0" encoding="UTF-8"?>
<svg width="99px" height="99px" viewBox="0 0 99 99" version="1.1" xmlns="http://www.w3.org/2000/svg" xmlns:xlink="http://www.w3.org/1999/xlink">
    <!-- Generator: Sketch 41.2 (35397) - http://www.bohemiancoding.com/sketch -->
    <title>Layer_1</title>
    <desc>Created with Sketch.</desc>
    <defs></defs>
    <g id="Page-1" stroke="none" stroke-width="1" fill="none" fill-rule="evenodd">
        <g id="Group-13" transform="translate(-702.000000, -1.000000)" fill="#00BAFF">
            <g id="settings" transform="translate(702.000000, 1.000000)">
                <g id="Layer_1">
                    <path d="M96.6704662,85.4456502 L75.0941342,63.8380739 L76.4610015,60.1878478 C76.7159324,59.5067852 76.5499488,58.7393393 76.036437,58.2248869 L72.8172387,55.0009983 C72.0939421,54.2768402 70.9214908,54.2766478 70.1978099,55.0009983 L66.1533043,59.0513967 L57.6977459,50.5835186 L76.4458248,31.8104325 C78.2459016,30.0056166 80.5237577,28.6236752 83.0325307,27.813711 C85.1743724,27.1232212 87.1498463,25.913277 88.7455174,24.315281 C91.5057633,21.5515906 92.991355,17.8763537 92.9296875,13.9667851 C92.86802,10.0576013 91.2635118,6.42873059 88.4122054,3.74873008 C87.9467213,3.31142633 87.2900871,3.1450085 86.6732198,3.30757852 C86.0563525,3.47014854 85.5666624,3.93919673 85.3764728,4.54907481 L83.0279201,12.0898228 C82.7380251,13.0208008 82.1030994,13.7832445 81.239562,14.2365167 C80.3756404,14.6901737 79.3874232,14.7796353 78.458376,14.4895103 C76.9243724,14.0096882 75.8935067,12.6088926 75.8935067,11.0047401 C75.8935067,10.6372741 75.9499872,10.2698081 76.0614114,9.91234647 L78.3826844,2.45836658 C78.5736424,1.84483309 78.433978,1.17589111 78.0132556,0.690682113 C77.5927254,0.205280728 76.9506916,-0.0280890219 76.317687,0.0756094904 C73.6680968,0.506371956 71.2119621,1.66456313 69.215356,3.4241672 C65.6999232,6.51953893 63.9115651,11.1409526 64.4314165,15.7854531 C64.9624103,20.5544303 63.2647285,25.294549 59.7738858,28.7904778 L47.8547643,40.7265806 L22.1200051,14.9543259 L21.6535605,9.89984108 C21.6005379,9.32401613 21.2824027,8.80629313 20.7936732,8.49904541 L7.71324283,0.283583686 C6.98130123,-0.175844972 6.02977715,-0.0679138679 5.41924949,0.543503334 L0.542520492,5.42714533 C-0.0681992828,6.03875492 -0.175589139,6.99166537 0.283171107,7.72409623 L8.48687244,20.8233923 C8.79328893,21.3130263 9.31064293,21.6316251 9.88543801,21.6847249 L14.9325692,22.1516568 L40.6682889,47.9252582 L21.9209785,66.6973824 C20.1195569,68.5018135 17.8409324,69.8831777 15.3308145,70.6927572 C13.1605405,71.392674 11.2386655,72.5704891 9.61763576,74.1934958 C6.85777408,76.9573786 5.37199027,80.6324231 5.4338499,84.5412221 C5.49590164,88.449444 7.10002561,92.0777376 9.95133197,94.7579305 C10.416624,95.1952342 11.0732582,95.3614597 11.6899334,95.1994668 C12.3068007,95.0368968 12.7964908,94.5684258 12.9868724,93.9585477 L15.3381148,86.4193388 C15.6282018,85.4872065 16.2631276,84.7241856 17.1260886,84.270721 C17.966957,83.8287999 18.9269339,83.7324122 19.8369621,83.9961797 C19.8605917,84.0046449 19.8844134,84.0125329 19.9086194,84.0202285 C21.828189,84.6195251 22.9032403,86.6731019 22.3050077,88.5970075 L19.9837346,96.0484863 C19.7925845,96.6620198 19.9320569,97.3313466 20.3529713,97.816748 C20.7077997,98.2263475 21.2197746,98.4558694 21.7515369,98.4558694 C21.8502818,98.4558694 21.9497951,98.4479814 22.0491163,98.4318206 C24.6942879,98.0010581 27.1494621,96.8444061 29.1516393,95.0849944 C32.66323,91.9901999 34.451396,87.3684014 33.9346183,82.7206303 C33.4018955,77.9541541 35.0995774,73.2144203 38.591957,69.7165675 L50.5110784,57.7823886 L58.9656762,66.2493048 L54.9211706,70.2997033 C54.197874,71.0246309 54.197874,72.1989829 54.9211706,72.9233333 L58.1403689,76.1476067 C58.6540727,76.6620591 59.4213627,76.8277074 60.1004739,76.5727899 L63.7457736,75.203931 L85.3217213,96.8115073 C86.4486424,97.9400703 87.9290471,98.5043519 89.4092597,98.5043519 C90.8894723,98.5043519 92.3696849,97.9402627 93.4967982,96.8115073 L96.6710425,93.6326381 C98.9241163,91.3751272 98.9241163,87.7025838 96.6704662,85.4456502 Z M62.3929303,31.413146 C66.6844903,27.115718 68.7692751,21.2693537 68.1126409,15.3727754 C67.727459,11.9307158 69.0539831,8.50500952 71.6618852,6.20882817 C72.3089139,5.63858255 73.0224129,5.15356595 73.784708,4.76224355 L72.5250384,8.80667792 C72.301998,9.52217841 72.189229,10.2611506 72.189229,11.0037781 C72.189229,14.2397873 74.2646004,17.0631188 77.3547003,18.0298814 C81.2259221,19.2384789 85.3574539,17.0690829 86.564293,13.1931827 L87.8725666,8.99214242 C88.7289959,10.5114507 89.1971696,12.2281516 89.2256019,14.0248871 C89.2715164,16.921327 88.1705302,19.6442306 86.1258965,21.6914585 C84.927126,22.8919756 83.5045466,23.7635049 81.8963883,24.2819974 C78.8297259,25.2716545 76.0385502,26.9683468 73.8256276,29.1871872 L55.0783171,47.9595038 L50.4741931,43.3486716 L62.3929303,31.413146 Z M35.9723361,67.0933222 C31.6786629,71.3932512 29.5940702,77.239808 30.2530097,83.1321537 C30.6360784,86.5769067 29.3093622,90.0041521 26.7062628,92.2982171 C26.0576972,92.868078 25.3443904,93.352325 24.5819032,93.7432626 L25.8413806,89.7007522 C27.0363089,85.857366 24.9177126,81.7586775 21.1120005,80.5106399 C21.0785733,80.4983269 21.045146,80.4865911 21.0107582,80.4758172 C19.135374,79.8909499 17.1447234,80.071797 15.4055456,80.9854598 C13.6659836,81.8995073 12.3861424,83.4372851 11.8023181,85.3144398 L10.4919314,89.5156725 C9.63492572,87.9963642 9.16636783,86.2792785 9.13793545,84.482543 C9.092021,81.5864879 10.1930072,78.8641615 12.2376409,76.8163563 C13.4385246,75.6137229 14.8614882,74.7412318 16.4667649,74.2235088 C19.5336194,73.2344289 22.3257556,71.5388909 24.5405994,69.3202429 L43.2879098,50.5479264 L47.8918417,55.1585661 L35.9723361,67.0933222 Z M16.8930584,18.8692814 C16.531314,18.50701 16.057377,18.3259705 15.583248,18.3259705 C15.3757684,18.3259705 15.1680968,18.3607932 14.970415,18.4300538 L11.1381916,18.075478 L4.20549436,7.0053251 L6.99532531,4.21142937 L18.0495645,11.1544199 L18.4036245,14.9926116 C18.3354252,15.1880804 18.2995005,15.3949003 18.2995005,15.6057603 C18.2995005,16.097703 18.4946849,16.5694446 18.8418289,16.9172868 L63.5334913,61.6744497 L61.5845287,63.6264443 L16.8930584,18.8692814 Z M63.1853868,71.4515456 L59.9160476,72.6791897 L58.8496414,71.6112297 L71.5074283,58.9353852 L72.5738345,60.0033452 L71.3479764,63.2772554 L63.1853868,71.4515456 Z M94.0508453,91.0088156 L90.8766009,94.1876848 C90.0674308,94.9980339 88.7501281,94.9980339 87.9405738,94.1876848 L66.8308786,73.0474253 L72.9411501,66.9282511 L94.0508453,88.0687031 C94.8603996,88.8792445 94.8603996,90.1980818 94.0508453,91.0088156 Z" id="Shape"></path>
                </g>
            </g>
        </g>
    </g>
</svg>